<svg width="476" height="476" viewBox="0 0 476 476" fill="none" xmlns="http://www.w3.org/2000/svg">
<rect width="348" height="348" transform="translate(64 64)" fill="black"/>
<path d="M88 88H172V100H88V88ZM184 88H292V100H184V88ZM304 88H388V100H304V88ZM88 100H100V112H88V100ZM160 100H172V112H160V100ZM196 100H208V112H196V100ZM220 100H232V112H220V100ZM256 100H268V112H256V100ZM304 100H316V112H304V100ZM376 100H388V112H376V100ZM88 112H100V124H88V112ZM112 112H148V124H112V112ZM160 112H172V124H160V112ZM208 112H220V124H208V112ZM256 112H268V124H256V112ZM280 112H292V124H280V112ZM304 112H316V124H304V112ZM328 112H364V124H328V112ZM376 112H388V124H376V112ZM88 124H100V136H88V124ZM112 124H148V136H112V124ZM160 124H172V136H160V124ZM184 124H196V136H184V124ZM244 124H280V136H244V124ZM304 124H316V136H304V124ZM328 124H364V136H328V124ZM376 124H388V136H376V124ZM88 136H100V148H88V136ZM112 136H148V148H112V136ZM160 136H172V148H160V136ZM184 136H196V148H184V136ZM208 136H292V148H208V136ZM304 136H316V148H304V136ZM328 136H364V148H328V136ZM376 136H388V148H376V136ZM88 148H100V160H88V148ZM160 148H172V160H160V148ZM184 148H232V160H184V148ZM244 148H256V160H244V148ZM280 148H292V160H280V148ZM304 148H316V160H304V148ZM376 148H388V160H376V148ZM88 160H172V172H88V160ZM184 160H196V172H184V160ZM208 160H220V172H208V160ZM232 160H244V172H232V160ZM256 160H268V172H256V160ZM280 160H292V172H280V160ZM304 160H388V172H304V160ZM184 172H220V184H184V172ZM256 172H280V184H256V172ZM88 184H100V196H88V184ZM136 184H148V196H136V184ZM160 184H196V196H160V184ZM220 184H244V196H220V184ZM292 184H352V196H292V184ZM376 184H388V196H376V184ZM100 196H112V208H100V196ZM124 196H160V208H124V196ZM196 196H244V208H196V196ZM256 196H292V208H256V196ZM328 196H352V208H328V196ZM364 196H376V208H364V196ZM112 208H136V220H112V208ZM148 208H184V220H148V208ZM196 208H208V220H196V208ZM256 208H292V220H256V208ZM304 208H328V220H304V208ZM340 208H364V220H340V208ZM112 220H160V232H112V220ZM172 220H184V232H172V220ZM196 220H208V232H196V220ZM316 220H328V232H316V220ZM352 220H376V232H352V220ZM88 232H100V244H88V232ZM148 232H196V244H148V232ZM220 232H232V244H220V232ZM256 232H268V244H256V232ZM280 232H328V244H280V232ZM340 232H388V244H340V232ZM88 244H100V256H88V244ZM136 244H148V256H136V244ZM196 244H220V256H196V244ZM232 244H244V256H232V244ZM256 244H292V256H256V244ZM328 244H340V256H328V244ZM364 244H376V256H364V244ZM112 256H124V268H112V256ZM148 256H172V268H148V256ZM184 256H208V268H184V256ZM220 256H304V268H220V256ZM316 256H364V268H316V256ZM124 268H136V280H124V268ZM196 268H232V280H196V268ZM292 268H340V280H292V268ZM352 268H376V280H352V268ZM88 280H112V292H88V280ZM124 280H196V292H124V280ZM232 280H244V292H232V280ZM268 280H364V292H268V280ZM184 292H208V304H184V292ZM244 292H268V304H244V292ZM280 292H292V304H280V292ZM328 292H340V304H328V292ZM88 304H172V316H88V304ZM184 304H208V316H184V304ZM280 304H292V316H280V304ZM304 304H316V316H304V304ZM328 304H340V316H328V304ZM88 316H100V328H88V316ZM160 316H172V328H160V316ZM196 316H220V328H196V316ZM232 316H244V328H232V316ZM256 316H292V328H256V316ZM328 316H376V328H328V316ZM88 328H100V340H88V328ZM112 328H148V340H112V328ZM160 328H172V340H160V328ZM184 328H196V340H184V328ZM208 328H244V340H208V328ZM280 328H364V340H280V328ZM88 340H100V352H88V340ZM112 340H148V352H112V340ZM160 340H172V352H160V340ZM232 340H256V352H232V340ZM292 340H328V352H292V340ZM352 340H388V352H352V340ZM88 352H100V364H88V352ZM112 352H148V364H112V352ZM160 352H172V364H160V352ZM196 352H232V364H196V352ZM280 352H316V364H280V352ZM340 352H352V364H340V352ZM364 352H376V364H364V352ZM88 364H100V376H88V364ZM160 364H172V376H160V364ZM220 364H232V376H220V364ZM268 364H280V376H268V364ZM316 364H376V376H316V364ZM88 376H172V388H88V376ZM184 376H208V388H184V376ZM268 376H280V388H268V376ZM292 376H316V388H292V376ZM352 376H388V388H352V376Z" fill="white"/>
</svg>
